<?xml version="1.0" encoding="UTF-8"?>
<svg version="1.1" xmlns="http://www.w3.org/2000/svg" viewBox="0 0 2000 2000">
<path d="M0 0 C14.54351237 -0.0972765 29.0540641 -0.07767876 43.58984375 0.4375 C46.21190902 0.52911955 48.83397556 0.62069269 51.45605469 0.71191406 C52.13426584 0.73552128 52.812477 0.75912849 53.51124001 0.78345108 C91.08251931 2.07683682 128.66028486 2.25110415 166.25 2.25 C167.27868698 2.25003021 167.27868698 2.25003021 168.32815552 2.25006104 C208.41440423 2.24888333 248.45337247 1.83356707 288.51272583 0.30706787 C302.33890883 -0.17959549 316.1676228 -0.08443314 330 0 C330 6.93 330 13.86 330 21 C314.73214286 23.00892857 314.73214286 23.00892857 307.25 23.3125 C291.71098424 24.34487447 275.8794786 28.56738097 264 39 C248.08622891 59.4794684 250.70051907 91.36488797 250.68115234 115.69824219 C250.6728024 118.4740946 250.66152644 121.24993348 250.6503849 124.02577591 C250.62542645 130.65792007 250.61029393 137.29004848 250.59880099 143.92222817 C250.58503999 151.61045918 250.55870903 159.29861495 250.5324707 166.98681641 C250.469432 187.24118085 250.42322586 207.49559487 250.375 227.75 C250.25125 273.0425 250.1275 318.335 250 365 C343.39 365 436.78 365 533 365 C532.87625 319.851875 532.7525 274.70375 532.625 228.1875 C532.59100098 213.95133545 532.55700195 199.7151709 532.52197266 185.04760742 C532.48204728 172.24521215 532.48204728 172.24521215 532.43954468 159.44282532 C532.42073718 153.75699489 532.40718813 148.07118249 532.39730835 142.3853302 C532.38587031 135.813351 532.36755006 129.24143202 532.34107121 122.6694956 C532.32776144 119.31433911 532.318422 115.9593094 532.31574559 112.6041187 C532.82299999 75.78520889 532.82299999 75.78520889 520 42 C519.13375 40.6078125 519.13375 40.6078125 518.25 39.1875 C501.87510032 23.26745864 474.29542611 23.232585 453 21 C453 14.07 453 7.14 453 0 C480.23505941 -0.17520767 480.23505941 -0.17520767 493.375 0.4375 C557.1265131 3.25881736 621.08473548 2.31598574 684.875 1.5625 C685.72760281 1.5526432 686.58020561 1.54278641 687.45864487 1.53263092 C708.34369429 1.29073527 729.22113803 0.92401597 750.09933472 0.32704163 C761.07073183 0.02175191 772.02389514 -0.03828799 783 0 C783 7.26 783 14.52 783 22 C781.11539063 22.09796875 779.23078125 22.1959375 777.2890625 22.296875 C744.19678635 23.72353503 744.19678635 23.72353503 716.125 39.55078125 C695.26015802 63.59904581 702.57086244 112.91152169 702.62248504 142.13150156 C702.63198898 148.34848442 702.62422961 154.56546027 702.61850847 160.7824439 C702.60665904 174.25913384 702.61160894 187.73577658 702.62378674 201.21246386 C702.6343667 213.00251225 702.63885667 224.79254464 702.63749123 236.58259773 C702.6374072 237.36784307 702.63732317 238.1530884 702.63723659 238.96212905 C702.63688428 242.15045614 702.63650026 245.33878323 702.63607101 248.52711031 C702.63211623 278.36431605 702.6447766 308.20149353 702.66559757 338.03869118 C702.68397623 364.50032923 702.68977567 390.96194024 702.68432617 417.42358398 C702.68397974 419.12394535 702.68363364 420.82430672 702.68328788 422.52466809 C702.68311689 423.36532952 702.68294589 424.20599096 702.68276971 425.07212698 C702.68191606 429.30464052 702.68109228 433.53715407 702.68030071 437.76966763 C702.68014363 438.60483174 702.67998655 439.43999586 702.67982471 440.30046797 C702.67582875 462.47168888 702.68131791 484.64290721 702.689812 506.81412655 C702.69071896 509.2014849 702.69162461 511.58884325 702.69252724 513.9762016 C702.69312834 515.55962435 702.69373696 517.14304709 702.69435314 518.72646984 C702.69856183 529.73034408 702.69915812 540.7342132 702.69724765 551.73808799 C702.69479766 565.91861079 702.6989336 580.09910623 702.71445765 594.27962159 C702.72176393 601.10960356 702.72580191 607.93954562 702.72121429 614.76953125 C702.7171095 621.0332242 702.72238323 627.29683974 702.73484037 633.56052101 C702.73774514 635.81441514 702.73736972 638.06831668 702.73319729 640.32220881 C701.82234798 681.99102232 701.82234798 681.99102232 719.46484375 717.81640625 C735.77352916 731.8634866 762.6570467 731.99665072 783 734 C783 740.93 783 747.86 783 755 C779.83615723 754.85780029 776.67231445 754.71560059 773.41259766 754.5690918 C726.42570469 752.59521032 679.44192323 752.72590868 632.42211747 752.79940498 C623.45921142 752.81275088 614.49632986 752.81510287 605.5334152 752.8144539 C594.57326959 752.81376877 583.61313785 752.82074984 572.65299654 752.8299005 C569.58890889 752.83198667 566.52482361 752.83273524 563.46073532 752.83313942 C542.70778063 752.8384819 521.96518096 752.96378224 501.21728516 753.44799805 C500.36121131 753.46735023 499.50513746 753.48670242 498.62312198 753.50664103 C489.29822556 753.72287663 479.99419684 754.04907613 470.68640673 754.66693467 C464.77942969 755.05281206 458.91744294 755.07490434 453 755 C453 747.74 453 740.48 453 733 C456.526875 732.7525 460.05375 732.505 463.6875 732.25 C493.09079014 730.20595959 493.09079014 730.20595959 518 716 C531.44077373 699.59012424 532.13951013 673.07342232 532.15821838 652.96502686 C532.16561287 651.24480064 532.16561287 651.24480064 532.17315674 649.48982239 C532.18842556 645.66867207 532.19686447 641.8475382 532.20532227 638.02636719 C532.21451261 635.23146839 532.22514995 632.43657552 532.23572445 629.64168167 C532.26027607 622.93314498 532.2799229 616.22460306 532.29780969 609.51604564 C532.31873485 601.74847413 532.34583883 593.98093209 532.3729248 586.21337891 C532.44134204 565.72560272 532.50141431 545.23779936 532.5625 524.75 C532.706875 478.9625 532.85125 433.175 533 386 C439.61 386 346.22 386 250 386 C250.103125 431.54 250.20625 477.08 250.3125 524 C250.34984253 545.52089844 250.34984253 545.52089844 250.38793945 567.4765625 C250.42452969 580.4052794 250.42452969 580.4052794 250.4650116 593.33398438 C250.48285396 599.0654401 250.49278007 604.79683996 250.49711609 610.52832031 C250.50216067 617.15918292 250.51770408 623.78992806 250.54548384 630.42073572 C250.55934158 633.8031937 250.56728141 637.18535429 250.56503928 640.56785965 C250.17545127 680.39825109 250.17545127 680.39825109 265.25 716.375 C281.7760379 732.14985436 308.53189248 731.3619248 330 733 C330 740.26 330 747.52 330 755 C320.83878466 755.10652576 311.71716482 754.89945407 302.5625 754.5625 C301.43730957 754.52326416 300.31211914 754.48402832 299.15283203 754.44360352 C298.07243652 754.40162842 296.99204102 754.35965332 295.87890625 754.31640625 C294.9154126 754.27974854 293.95191895 754.24309082 292.95922852 754.20532227 C290 754 290 754 286.87257004 753.49510384 C282.56876437 752.944867 278.41126461 752.8610555 274.07965088 752.87301636 C273.20406674 752.87145637 272.3284826 752.86989638 271.42636561 752.86828911 C268.50330195 752.86431293 265.58029058 752.86745597 262.65722656 752.87060547 C260.55537384 752.86924966 258.45352135 752.86746871 256.35166931 752.86529541 C250.6412323 752.8607347 244.93081335 752.86250714 239.22037601 752.8656745 C233.21094274 752.86821442 227.20151097 752.86585515 221.19207764 752.86428833 C211.07059453 752.86246748 200.94911872 752.86486665 190.82763672 752.86962891 C179.21579591 752.87503021 167.60397278 752.87333892 155.99213243 752.8678025 C145.97029416 752.86321935 135.94846113 752.86264714 125.92662215 752.86524117 C119.9659126 752.866781 114.00521125 752.867063 108.04450226 752.86370468 C76.20370452 752.84235906 76.20370452 752.84235906 44.37011719 753.44580078 C43.69065238 753.4652128 43.01118756 753.48462482 42.31113291 753.50462508 C34.15833075 753.74610411 26.0211949 754.13830727 17.88254046 754.66704571 C11.91664836 755.04489317 5.97510076 755.10361446 0 755 C-0.02887814 751.52085059 -0.04675687 748.04173169 -0.0625 744.5625 C-0.07506836 743.07266602 -0.07506836 743.07266602 -0.08789062 741.55273438 C-0.09111328 740.60849609 -0.09433594 739.66425781 -0.09765625 738.69140625 C-0.10289307 737.81685791 -0.10812988 736.94230957 -0.11352539 736.04125977 C0 734 0 734 1 733 C3.5027597 732.83598419 5.99448562 732.72033337 8.5 732.625 C25.41218213 731.77600204 50.07889641 729.89094726 63 718 C63.55558594 717.49984375 64.11117187 716.9996875 64.68359375 716.484375 C80.99488014 699.72564684 79.2990321 668.62248755 79.26069641 647.00128174 C79.26372054 644.57649326 79.26761133 642.15170574 79.27228898 639.72691989 C79.28040823 634.47489669 79.28237907 629.2229091 79.27878571 623.97088242 C79.27345615 616.1604407 79.27959656 608.35003644 79.28786864 600.5395988 C79.30307674 585.77536541 79.30481699 571.01114923 79.30234561 556.24690965 C79.30051009 544.84248875 79.30227799 533.43807346 79.30657005 522.03365326 C79.30717246 520.39285091 79.30777366 518.75204856 79.30837366 517.11124621 C79.30928095 514.63844759 79.31018962 512.16564897 79.31110601 509.69285035 C79.31953078 486.71370687 79.32387453 463.73456549 79.31969929 440.75542068 C79.31946472 439.45709202 79.31946472 439.45709202 79.31922542 438.13253449 C79.31841969 433.7459772 79.31757391 429.35941991 79.31671212 424.97286263 C79.31654103 424.10174195 79.31636994 423.23062128 79.31619367 422.333103 C79.31584701 420.57148713 79.31549848 418.80987125 79.31514808 417.04825538 C79.30979181 389.64218357 79.3177206 362.23614394 79.33618164 334.83007812 C79.35691848 304.0097159 79.36762115 273.1893736 79.36360615 242.36900401 C79.36321083 239.07987261 79.36284928 235.79074121 79.36250877 232.5016098 C79.36237268 231.28688889 79.36237268 231.28688889 79.36223383 230.04762817 C79.36107008 217.84694196 79.36769922 205.64627595 79.37832069 193.44559479 C79.3903949 179.56237896 79.39190612 165.67920749 79.37953053 151.79599097 C79.37292275 144.03695435 79.37448465 136.27802392 79.38811904 128.51899589 C79.39738661 122.71000567 79.39079575 116.90111637 79.37827124 111.09213623 C79.37563029 108.7537695 79.37797174 106.41539024 79.38600711 104.07703581 C79.42965375 90.41962739 78.66916465 77.40895061 76 64 C75.76692038 62.81237918 75.53384077 61.62475836 75.29369813 60.40114903 C73.02189753 49.52874316 68.26617765 40.38142423 59 34 C56.4055738 32.44031577 53.79980072 31.14714057 51 30 C49.83082031 29.51273438 48.66164063 29.02546875 47.45703125 28.5234375 C42.32322125 26.62211419 37.07754624 25.74330005 31.6875 24.875 C30.64529297 24.70323242 29.60308594 24.53146484 28.52929688 24.35449219 C19.00160252 22.8594396 9.63640106 22.30113753 0 22 C0 14.74 0 7.48 0 0 Z " fill="black" transform="translate(609,624)"/>
</svg>
